<svg width="480" height="480" viewBox="0 0 480 480" fill="none" xmlns="http://www.w3.org/2000/svg">
<g clip-path="url(#clip0_48_2731)">
<path d="M231.642 112.959C235.449 112.998 233.236 114.004 235.396 115.452C236.165 115.292 236.643 115.088 237.339 115.407C238.703 116.722 238.224 117.784 238.615 119.594C246.56 120.253 241.354 118.803 244.158 115.377C245.185 114.965 245.163 115.258 246.506 115.477L247.035 115.058C247.278 114.241 247.302 113.996 247.822 113.297C249.699 112.45 250.387 113.672 251.372 115.011L251.622 115.356C252.842 114.634 251.909 114.443 253.447 113.876C257.672 114.442 256.632 121.57 257.669 124.828C259.079 125.641 265.239 120.549 260.344 131.632C259.617 133.276 257.977 137.304 259.034 138.875C260.597 139.787 261.102 139.993 262.222 141.427C266.522 142.641 268.349 143.886 271.292 147.299C277.557 147.386 283.942 146.987 290.222 147.274C290.257 153.443 290.339 159.611 290.467 165.779C291.499 166.464 292.884 167.581 293.854 168.39C304.619 177.379 315.979 183.102 329.074 188.059C329.247 186.863 329.534 185.596 329.779 184.405C318.994 179.5 318.349 172.351 320.304 161.352C320.674 159.271 321.619 157.094 321.562 154.983C320.584 154.337 319.479 154.043 318.577 153.293C315.452 150.699 317.499 147.338 319.544 144.942C318.014 142.413 317.994 139.89 320.224 137.744C321.719 135.552 326.707 135.23 328.274 134.159C335.737 129.053 342.292 128.19 349.249 135.51C350.839 135.284 352.449 135.203 354.054 135.268C360.222 135.571 363.094 139.157 362.562 145.166C364.272 145.264 368.414 145.404 368.519 147.731C367.157 147.889 365.829 146.701 364.122 146.679C363.914 147.337 367.309 151.568 367.644 153.364C370.179 166.932 360.342 179.394 347.792 183.109C347.244 185.405 347.054 187.774 346.977 190.127C348.282 190.477 349.584 190.838 350.884 191.209C375.199 198.179 391.529 225.602 402.607 246.853C405.554 252.505 409.592 261.365 407.759 267.695C408.352 269.052 408.504 271.395 408.932 272.07C410.682 274.835 416.627 282.195 415.184 285.85C412.087 288.8 415.044 289.815 412.889 291.567C412.129 291.637 411.909 291.642 411.157 291.847L410.674 292.975C409.299 296.175 408.667 293.975 406.852 294.395C405.862 295.45 405.704 295.965 404.254 295.857C401.744 294.39 399.924 288.215 398.922 285.315C398.459 287.222 396.672 292.832 393.829 290.667C392.269 289.48 393.267 280.932 393.232 278.837C392.104 277.512 391.844 277.05 390.992 275.527C385.427 273.147 383.134 270.165 380.224 264.897C377.717 260.357 375.239 255.787 372.684 251.275C372.339 255.315 372.307 260.727 372.627 264.76C373.492 275.64 375.777 281.932 371.332 292.435C369.674 292.41 367.852 292.295 366.179 292.225C364.359 325.592 369.964 338.495 384.062 368.55L382.692 370.77C386.447 373.112 389.914 376.415 391.947 380.383C390.204 386.168 380.679 395.655 375.352 398.612C368.979 402.15 360.792 399.875 366.782 391.597C369.152 388.325 372.174 383.318 373.557 379.45C371.614 376.853 370.992 378.21 370.197 377.392C354.304 361.05 339.102 330.827 334.092 310.02C333.649 313.482 332.482 318.332 331.764 321.852C330.672 327.28 329.749 332.745 328.999 338.232C328.224 344.277 327.582 350.34 327.069 356.415C326.829 359.347 325.532 380.807 325.247 381.23C324.524 381.437 324.187 381.482 323.459 381.585C322.692 383.01 325.007 387.767 325.104 390.337C325.207 393.042 325.382 393.647 324.922 396.505C323.302 397.277 319.229 398.205 317.129 398.258C313.114 398.358 293.259 402.09 292.789 396.045C292.319 390.002 306.197 387.53 309.449 384.08C310.044 383.447 309.957 382.497 309.884 381.68C309.372 380.88 309.257 381.09 307.982 380.802C306.392 378.677 305.104 322.15 305.034 314.937C304.932 305.435 305.004 295.927 305.252 286.427C304.097 285.932 303.447 285.522 302.379 284.885C297.699 276.98 300.992 265.485 301.832 256.847C302.904 246.386 303.177 235.763 303.502 225.257C303.697 218.93 295.374 212.154 290.972 207.894C291.422 219.443 291.339 231.448 291.514 243.046C291.674 253.67 292.014 264.55 291.992 275.135C285.967 275.615 276.664 275.43 270.374 275.505L236.703 276.03C226.56 276.247 215.111 276.53 205.018 276.392C204.681 270.357 204.741 263.975 204.68 257.89L204.311 232.132L203.99 208.786C203.945 204.863 203.714 199.675 203.966 195.856C196.726 202.663 185.554 212.345 180.201 220.596C179.036 222.392 179.522 227.562 179.621 229.939C179.986 238.466 180.711 246.973 181.795 255.44C182.915 263.542 186.316 275.867 182.425 283.472C181.653 284.982 178.877 285.792 177.268 286.135C177.14 295.072 177.527 304.702 177.492 313.815C177.387 329.12 176.912 344.42 176.068 359.705C175.855 363.695 175.615 367.685 175.449 371.677C175.362 373.795 175.464 376.04 175.188 378.135C175.023 379.388 174.754 380.192 173.758 380.982C173.473 381.207 173.148 381.415 172.953 381.732C170.534 385.667 187.922 389.15 189.887 394.763C190.103 395.38 190.053 396.04 189.74 396.617C189.268 397.487 188.044 398.355 187.11 398.633C183.33 399.747 161.798 398.867 158.601 396.805C154.947 394.447 159.92 384.79 159.391 381.815C158.872 381.275 157.887 381.167 157.104 380.99C156.632 377.822 156.541 372.442 156.374 369.092C156.108 363.937 155.737 358.787 155.262 353.647C153.897 337.935 151.662 325.44 148.587 310.12C147.03 314.567 145.798 319.317 144.175 323.972C138.588 340.005 130.456 353.415 120.512 367.1C118.194 370.292 115.282 374.708 112.434 377.453C112.002 377.868 111.504 377.657 110.842 377.532L110.457 377.46C109.57 378.047 109.749 378.117 109.186 379.217C110.326 384.22 118.457 394.107 117.583 397.525C117.367 398.367 116.769 398.88 116.012 399.253C113.869 400.305 111.577 400.068 109.384 399.302C102.585 396.938 93.553 386.88 90.4257 380.438C92.477 376.52 95.1915 374.365 98.3655 371.472C98.9747 370.917 99.4482 370.452 99.4655 369.707C99.1335 369.385 98.277 368.617 98.4487 368.22C99.5902 365.585 101.309 362.082 102.485 359.542C104.438 355.332 106.277 351.07 107.999 346.76C116.219 325.97 117.349 313.94 116.48 291.98C114.826 292.097 112.712 292.395 111.176 291.945C106.361 287.492 109.303 270.215 109.77 263.952C110.096 259.575 109.867 255.487 109.694 251.107C107.525 254.592 105.871 257.685 103.879 261.242C100.435 267.395 98.159 273.007 91.1042 275.292C90.493 276.855 90.131 277.485 88.9537 278.672C88.9552 281.72 90.135 288.685 88.1485 290.682C85.037 291.645 83.8455 287.355 83.137 285.19C82.292 287.795 79.9595 295.79 77.0052 295.722C76.197 295.345 76.1432 295.08 75.654 294.257L75.497 293.987L75.0905 293.917C74.3257 294.352 74.038 294.61 73.1565 294.612C70.9635 293.697 72.4282 292.917 71.264 291.56C68.874 291.585 68.1855 291.19 68.6315 288.497C68.844 287.215 67.9277 286.682 67.1585 285.75C65.7242 280.385 73.3207 273.605 73.7532 270.48C73.8965 269.445 74.1785 268.587 74.5295 267.61C74.0027 265.272 73.9087 261.522 74.634 259.217C78.136 248.377 84.2425 237.183 90.502 227.66C101.997 210.172 114.196 194.665 135.629 189.994C135.486 187.27 135.169 185.222 134.591 182.571C128.768 181.847 124.589 179.156 122.197 173.783C116.868 171.593 112.935 166.279 116.545 160.73C115.987 159.987 115.484 159.204 115.038 158.388C112.002 152.927 114.284 147.863 119.554 145.106C118.32 144.25 115.357 143.109 115.01 142.538L115.386 142.074C116.731 141.879 117.517 142.784 119.144 142.802L119.488 142.448L119.482 141.532C119.463 140.236 119.362 138.934 120.262 137.873C121.365 138.627 120.729 142.182 121.519 143.249C122.336 142.961 123.42 139.561 124 138.62C126.983 133.777 133.51 131.654 138.531 134.576C143.506 130.318 153.672 125.6 155.203 135.592C163.466 133.423 168.696 137.09 163.707 145.391C168.385 149.175 165.08 152.334 160.517 153.529C163.881 164.614 166.196 178.795 152.895 183.752C153.015 185.055 153.213 186.475 153.371 187.784C174.704 180.652 187.324 170.085 203.439 154.703C203.355 152.377 203.271 150.665 203.479 148.33C205.362 148.38 207.544 148.28 209.449 148.239C212.824 144.244 214.918 142.726 219.85 141.356C220.987 139.651 221.233 139.404 223.113 138.606C222.755 134.483 221.46 131.935 220.01 128.179C219.558 127.007 219.266 125.933 219.802 124.774C221.25 123.791 221.989 124.742 223.881 125.062C224.76 122.323 224.385 112.725 228.944 114.062C229.318 114.711 229.371 114.824 229.877 115.415L230.256 115.226C230.75 114.093 230.832 113.88 231.642 112.959ZM359.727 159.179C359.719 157.944 359.032 154.974 358.172 154.148C357.864 155.676 358.414 158.235 359.727 159.179Z" fill="black"/>
<path d="M282.247 148.867C284.367 148.825 286.485 148.8 288.602 148.792C289.077 160.058 288.957 173.031 289.13 184.465L290.477 273.635C282.382 273.575 273.862 273.867 265.75 273.98L213.875 274.722L206.521 274.835C206.231 233.193 205.707 191.554 204.951 149.919C215.735 149.494 227.749 149.587 238.58 149.493L282.247 148.867Z" fill="white"/>
<path d="M262.367 242.887C264.465 242.788 275.325 242.233 276.397 243.368C277.992 245.058 278.25 259.877 276.88 261.375C273.957 262.727 263.787 262.512 260.045 262.592C251.597 262.79 243.148 262.94 234.699 263.047C231.318 263.15 223.278 263.797 220.583 262.557C219.481 262.05 218.879 246.155 220.41 244.23C223.113 243.109 232.856 243.396 236.426 243.341L262.367 242.887Z" fill="#8CBE70"/>
<path d="M249.533 246.527C257.015 246.162 257.82 256.325 252.03 259.137C245.167 260.245 243.693 249.515 249.533 246.527Z" fill="black"/>
<path d="M250.407 248.944C253.877 249.255 253.654 254.655 251.239 256.853C247.713 255.855 247.857 251.195 250.407 248.944Z" fill="#8CBE70"/>
<path d="M238.309 246.777C245.784 246.393 246.574 256.727 240.699 259.38C233.856 260.16 232.44 249.796 238.309 246.777Z" fill="black"/>
<path d="M238.878 249.198C242.739 249.261 242.239 254.598 240.252 256.868C236.416 256.673 236.509 251.565 238.878 249.198Z" fill="#8CBE70"/>
<path d="M230.444 246.92C231.539 247.071 231.302 246.87 231.934 247.514C232.437 249.401 232.59 255.698 232.382 257.783C232.291 258.693 232.006 259.033 231.355 259.515C230.144 259.588 230.055 259.618 229.753 258.563C229.737 257.173 229.852 252.563 229.556 251.478C228.539 251.47 226.712 252.385 226.498 250.653C227.422 249.102 228.983 247.921 230.444 246.92Z" fill="black"/>
<path d="M266.045 245.91C266.793 245.931 266.788 245.941 267.508 246.161L267.73 246.642C267.31 248.783 262.598 257.032 261.223 259.135C260.623 259.182 260.66 259.16 260.113 258.89L259.91 258.272C260.203 255.97 264.605 248.053 266.045 245.91Z" fill="black"/>
<path d="M258.952 246.466C260.402 245.933 262.014 246.614 262.644 248.024C263.274 249.433 262.704 251.09 261.339 251.813C260.372 252.325 259.199 252.258 258.297 251.635C257.397 251.01 256.917 249.938 257.054 248.851C257.192 247.764 257.925 246.845 258.952 246.466Z" fill="black"/>
<path d="M266.734 252.93C268.279 252.467 269.904 253.35 270.357 254.895C270.809 256.44 269.914 258.06 268.367 258.502C266.832 258.94 265.232 258.057 264.784 256.525C264.334 254.995 265.207 253.387 266.734 252.93Z" fill="black"/>
<path d="M266.993 186.386C267.718 186.751 271.963 190.87 272.861 191.727C268.768 197.63 263.976 203.956 259.826 209.887C257.078 213.815 249.742 225.353 247.023 227.798C244.527 226.167 240.836 222.186 238.585 219.907C236.45 217.844 234.353 215.742 232.297 213.602C233.884 212.039 236.112 209.422 237.66 207.701C240.138 210.3 243.985 213.493 246.092 216.262C252.966 206.161 259.451 196.08 266.993 186.386Z" fill="#8CBE70"/>
<path d="M244.684 190.318C246.586 190.071 249.548 190.105 251.458 190.409C253.106 190.671 259.076 192.081 258.663 194.132C258.441 194.305 258.218 194.478 257.993 194.651C255.426 194.346 251.428 192.5 248.91 192.413C243.135 192.168 237.51 194.289 233.335 198.286C229.474 202 227.292 207.125 227.289 212.482C227.238 217.931 229.179 223.364 233.065 227.245C236.871 231.094 242.056 233.265 247.47 233.276C252.913 233.262 258.131 231.094 261.981 227.246C266.398 222.768 267.783 217.879 267.751 211.754C267.541 209.565 266.108 205.094 266.628 204.034C267.408 203.689 266.991 203.759 267.943 203.985C269.108 204.892 269.281 205.884 269.598 207.318C271.003 213.669 269.898 220.475 266.173 225.898C262.886 230.79 257.761 234.149 251.963 235.213C239.108 237.52 227.352 229.613 225.23 216.62C224.232 210.583 225.663 204.397 229.21 199.411C233.036 194.113 238.333 191.33 244.684 190.318Z" fill="black"/>
<path d="M272.15 161.718C273.332 161.75 273.5 161.674 274.285 162.313C275.41 165.337 275.76 172.804 275.89 176.211C275.922 177.045 273.735 177.038 273.075 176.839C272.487 175.989 272.237 169.03 272.16 167.463C271.157 169.499 269.877 173.344 267.35 173.261C265.32 172.229 265.202 170.502 263.825 168.685L263.567 168.83L263.517 169.688C263.48 171.589 263.75 176.293 262.41 177.468C261.37 177.424 261.137 177.48 260.23 177.044C259.602 175.873 260.075 172.345 260.21 170.838C260.425 168.465 259.642 163.418 261.937 162.102C264.172 162.336 266.667 167.397 267.667 169.313C268.662 167.484 270.945 163.04 272.15 161.718Z" fill="black"/>
<path d="M250.183 161.87C252.025 162.204 253.46 164.349 253.763 166.021C254.19 168.38 260.135 177.175 256.1 177.876C254.943 177.44 254.28 175.477 253.628 174.489C253.205 173.849 252.743 174.018 251.903 173.991L248.47 174.072C248.095 175.322 247.828 176.651 247.038 177.645C245.861 178.177 244.94 177.677 244.463 176.538C244.814 174.325 248.773 163.366 250.183 161.87Z" fill="black"/>
<path d="M250.783 167.142C251.576 167.816 252.118 169.769 252.058 170.82L251.446 171.272C250.516 171.159 250.603 171.313 249.978 170.821C249.759 169.81 250.441 168.271 250.783 167.142Z" fill="white"/>
<path d="M217.259 163.066C219.121 162.997 220.989 162.944 222.851 162.876C224.397 162.82 228.535 162.555 226.871 165.352C225.223 166.326 222.257 166.027 220.229 166.011L220.223 169.274C221.899 169.257 224.436 168.829 225.553 170C225.803 171.101 225.837 170.582 225.502 171.617C223.987 173.018 222.894 171.803 220.765 172.413C220.093 173.052 220.304 172.866 220.102 173.983L220.361 174.974C222.412 176.312 227.523 173.773 227.957 176.802C226.984 179.382 220.012 178.471 217.576 178.43C217.159 175.962 216.784 165.593 217.259 163.066Z" fill="black"/>
<path d="M239.957 162.342C241.015 162.699 241.695 163.517 242.503 164.301C241.02 165.955 239.372 168.624 238.153 170.544C239.439 172.338 241.001 174.014 242.074 175.951C242.667 177.021 241.5 177.877 240.539 178.058C238.898 177.35 237.407 174.785 236.318 173.225C235.076 175.044 233.793 176.835 232.471 178.596C231.624 178.48 230.904 178.002 230.511 177.243C230.358 175.398 233.13 172.139 234.336 170.48C233.287 168.926 230.078 165.407 230.452 163.761C231.23 162.933 230.896 163.052 231.854 162.85C233.474 163.367 235.164 166.224 236.238 167.721L239.957 162.342Z" fill="black"/>
<path d="M203.037 157.178C203.199 157.237 203.318 157.376 203.454 157.483L203.8 193.914C197.523 199.504 191.432 205.854 185.361 211.688C183.292 213.676 181.265 216.334 179.448 218.588C179.718 216.681 181.234 202.936 180.663 202.048L180.233 202.093C179.428 202.969 179.45 204.262 179.273 205.473C176.879 221.853 178.307 238.359 180.182 254.697C180.939 262.61 183.243 270.19 182.614 278.185C182.068 285.127 176.492 284.767 171.079 286.402C164.941 288.257 158.689 290.882 152.336 291.582C144.326 292.462 136.279 290.815 128.325 290.212C123 289.79 117.287 290.377 111.936 290.78C108.291 282.025 110.304 274.892 111.221 265.895C111.52 262.782 111.623 259.655 111.53 256.53C111.474 254.275 111.351 251.43 110.683 249.318C113.22 244.754 116.443 240.437 119.535 236.238C120.525 234.894 124.289 231.167 124.32 229.739L123.923 229.553C123.203 229.722 122.385 230.666 121.808 231.218C115.225 238.176 109.841 247.92 104.974 256.122C101.123 262.61 98.659 270.4 91.448 273.712C89.3032 273.29 86.947 272.45 84.903 271.7C85.4247 270.945 86.001 270.327 85.999 269.435L85.6257 269.185C84.6322 269.45 84.216 270.095 83.4982 270.875C82.004 270.292 81.3487 269.882 79.973 269.065C79.8905 267.925 79.9567 266.695 79.3462 265.81L78.9667 265.842C78.4172 266.78 78.5092 267.485 78.4755 268.58C77.6735 268.022 76.042 267.012 75.788 266.135C74.192 260.617 79.3672 250.492 81.9647 245.554C91.0077 228.364 103.186 208.669 119.706 197.763C123.152 195.488 127.109 193.877 130.962 192.626C131.367 193.252 131.872 193.92 132.331 194.511C135.031 198.035 139.057 200.298 143.471 200.773C148.794 201.388 154.522 199.356 157.256 194.525C158.575 192.195 158.74 189.991 159.034 187.404C178.676 179.238 187.412 171.737 203.037 157.178Z" fill="white"/>
<path d="M166.772 217.04C167.394 217.161 167.21 217.114 167.787 217.402C168.156 218.115 167.684 219.867 167.524 220.749C165.266 233.172 160.761 245.337 154.721 256.4C152.406 260.64 149.587 265.495 146.417 268.968L145.774 268.93C145.189 267.935 147.948 264.668 148.71 263.515C150.697 260.555 152.531 257.493 154.203 254.343C158.648 245.987 162.091 237.135 164.461 227.971C165.349 224.419 165.965 220.661 166.772 217.04Z" fill="black"/>
<path d="M157.342 222.283C157.888 222.496 157.701 222.389 158.133 222.792C158.157 222.954 158.246 223.564 158.198 223.721C154.562 235.626 144.647 253.44 135.459 261.338L135.032 261.1C134.652 259.84 138.214 256.658 139.431 255.148C147.947 244.587 152.755 234.847 157.342 222.283Z" fill="black"/>
<path d="M290.524 167.872C291.737 168.514 298.147 173.669 299.947 174.935C307.739 180.416 314.697 183.893 323.517 187.535C323.622 188.938 323.749 190.286 324.094 191.62C326.999 202.845 341.934 203.918 349.152 196.378C350.302 195.174 350.819 194.393 351.627 192.986C373.762 199.762 389.182 225.216 399.689 244.419C403.299 251.018 407.117 259.03 406.719 266.64C405.594 267.62 405.217 267.88 403.967 268.66C403.889 267.6 403.967 266.628 403.359 265.823L402.977 265.92C402.324 267.078 402.384 268.105 402.292 269.453C401.184 270.058 400.039 270.558 398.892 271.083L398.719 270.863C397.972 269.923 397.784 269.543 396.652 269.405L396.392 269.76C396.439 270.598 396.997 271.185 397.502 271.89C395.419 272.583 393.324 273.248 391.222 273.88C389.017 273.118 387.274 272.205 385.777 270.335C381.764 265.328 378.834 258.938 375.624 253.34C371.632 246.384 367.147 239.724 362.204 233.41C361.102 232.017 359.769 230.213 357.972 229.774C358.187 230.948 364.554 238.747 365.712 240.532C367.639 243.495 369.904 246.351 371.582 249.691C368.554 264.25 375.674 278.585 370.254 291.023C365.529 290.21 356.999 290.05 352.249 290.475C345.527 291.078 338.204 292.17 331.424 291.698C325.732 291.303 319.522 288.87 314.112 287.053C312.397 286.188 304.952 285.095 303.859 283.968C298.884 278.835 303.079 260.82 303.467 255.755C304.824 237.905 305.989 221.101 303.282 203.467C303.197 202.927 302.644 202.647 302.247 202.436L301.954 202.691C301.862 204.64 302.367 207.593 302.537 209.623C302.782 212.556 302.957 215.636 303.342 218.54C299.594 214.051 295.487 209.877 291.059 206.06C290.794 193.724 290.457 180.126 290.524 167.872Z" fill="white"/>
<path d="M316.728 223.966L317.348 224.243C318.325 225.411 321.135 232.183 322.473 234.432C327.265 242.499 332.16 249.159 338.753 255.913C341.59 258.818 346.208 262.505 349.153 265.518C349.23 265.825 349.305 266.13 349.383 266.435C347.108 265.725 344.503 263.255 342.71 261.635C333.073 253.04 325.105 242.739 319.215 231.248C318.405 229.678 316.213 225.573 316.728 223.966Z" fill="black"/>
<path d="M322.689 249.871C323.059 249.962 323.192 250.047 323.544 250.205C326.294 253.832 327.924 257.397 331.139 260.957C334.627 264.82 337.992 268.285 341.859 271.8C342.184 272.097 342.342 272.67 342.449 273.082C338.209 272.755 322.957 254.497 322.689 249.871Z" fill="black"/>
<path d="M344.958 150.242C345.813 151.412 340.433 161 351.103 156.727C351.098 156.809 351.093 156.891 351.088 156.973L351.053 157.383C350.875 159.834 347.5 168.465 350.713 169.633C352.338 170.224 356.598 164.035 358.483 167.928C361.245 173.63 356.57 176.745 351.143 175.04C346.255 182.446 345.428 183.014 345.72 191.906C342.185 195.53 337.543 196.853 332.805 194.558C331.745 193.845 329.228 191.689 329.42 190.117C329.85 186.594 337.758 187.056 338.193 184.429C337.598 184.082 331.89 183.426 330.028 182.795C318.063 178.741 320.083 164.196 323.73 154.214C324.27 153.807 325.255 153.211 325.853 152.819C331.478 157.878 339.92 154.52 344.958 150.242Z" fill="white"/>
<path d="M337.03 171.396C337.56 171.542 337.31 171.432 337.73 171.851C337.743 173.28 335.915 174.438 334.76 174.96C332.273 176.084 330.548 175.958 328.078 175.022C327.63 174.578 327.69 174.553 327.57 173.914C329.5 172.264 331.133 177.3 337.03 171.396Z" fill="black"/>
<path d="M331.535 161.099C332.067 161.463 331.9 161.29 332.21 161.869C332.305 164.318 330.695 166.126 329.21 167.964C329.922 168.591 330.67 169.023 330.682 169.973L330.137 170.394C326.215 168.491 328.63 166.361 330.245 163.72C330.67 163.025 331.157 161.875 331.535 161.099Z" fill="black"/>
<path d="M338.008 162.349C341.048 162.419 339.863 165.242 338.883 166.839C337.793 166.771 337.661 166.683 337.038 165.878C336.696 164.376 337.223 163.674 338.008 162.349Z" fill="black"/>
<path d="M325.508 160.333C328.508 160.396 327.378 163.166 326.39 164.763C325.28 164.694 325.313 164.599 324.69 163.899C324.315 162.445 324.803 161.645 325.508 160.333Z" fill="black"/>
<path d="M337.91 157.78C340.145 157.578 343.62 157.898 343.335 160.854C341.492 159.753 338 158.717 337.84 158.57L337.91 157.78Z" fill="black"/>
<path d="M355.146 169.503C356.051 169.662 357.208 169.669 357.353 170.709C356.231 171.463 355.796 170.67 354.458 171.694C353.636 172.456 353.828 172.527 352.928 172.644L352.773 172.256C353.253 170.821 353.833 170.26 355.146 169.503Z" fill="black"/>
<path d="M326.21 155.787C327.657 155.882 328.355 155.969 329.228 157.151L329.112 157.568C328.23 157.816 328.345 157.674 327.302 157.388C326.09 157.016 325.19 157.73 324.25 157.057L324.305 156.671C325.06 155.875 324.95 156.109 326.21 155.787Z" fill="black"/>
<path d="M143.747 150.881C145.78 151.92 149.924 152.658 152.275 152.761C154.444 152.857 156.033 152.312 158.121 151.767C158.282 151.916 158.562 152.151 158.622 152.343C162.356 164.306 165.633 181.468 148.255 183.278C147.179 183.39 144.937 183.345 144.195 183.871L144.226 184.351C146.302 186.546 155.943 186.655 152.277 192.057C150.974 193.977 147.892 195.056 145.588 195.294C141.762 195.279 139.777 194.028 137.035 191.664C137.068 183.458 135.805 181.51 131.827 174.841C130.491 175.048 129.649 175.356 127.897 174.988C123.048 173.97 121.694 169.011 125.772 166.1C127.765 165.003 130.724 169.678 132.104 169.669C136.536 169.639 133.444 163.233 133.631 161.411C136.631 159.028 136.12 157.547 135.818 153.997C139.802 155.62 143.794 156.67 143.747 150.881Z" fill="white"/>
<path d="M150.884 159.831C151.257 159.968 151.377 160.072 151.719 160.278C152.763 162.439 155.257 165.75 154.953 167.839C154.497 168.75 154.305 168.794 153.418 169.386C152.383 169.211 152.678 169.472 152.201 168.869C152.505 168.131 153.334 167.678 154.017 167.192C152.399 164.903 150.617 162.78 150.884 159.831Z" fill="black"/>
<path d="M145.26 170.353C146.371 170.562 147.906 172.28 149.32 173.218C151.044 173.337 154.053 172.759 154.79 173.012L154.922 173.689C151.444 175.938 146.266 174.593 145.26 170.353Z" fill="black"/>
<path d="M143.913 161.082C146.223 162.036 146.532 164.306 144.662 165.937C142.737 164.795 141.962 162.686 143.913 161.082Z" fill="black"/>
<path d="M155.702 159.153C158.821 159.112 158.668 161.098 157.881 163.344C157.188 163.438 157.212 163.408 156.523 163.236C155.051 162.079 155.186 160.81 155.702 159.153Z" fill="black"/>
<path d="M142.906 156.54C143.951 156.518 144.5 156.414 145.291 157.203L145.19 157.516C144.193 158.033 142.924 158.061 141.63 158.397C140.933 158.92 140.64 159.294 139.805 159.029L139.785 158.52C140.746 157.017 141.129 157 142.906 156.54Z" fill="black"/>
<path d="M154.94 154.531C156.772 154.488 157.019 154.341 158.356 155.475L158.348 155.934C157.49 156.315 157.649 156.167 156.554 156.022C155.395 155.872 155.087 156.466 153.499 156.11L153.256 155.688C153.842 154.98 154.121 154.918 154.94 154.531Z" fill="black"/>
<path d="M125.711 169.197C127.432 169.129 130.975 169.805 129.84 172.226C128.953 171.732 128.422 171.011 127.357 170.348C126.636 170.491 126.477 170.565 125.737 170.497C125.384 169.86 125.524 170.186 125.711 169.197Z" fill="black"/>
<path d="M232.25 114.338C232.468 114.398 232.785 114.551 233.004 114.645C234.449 117.538 232.113 124.165 232.526 126.277L232.945 126.535C234.902 125.609 234.379 117.042 236.579 116.938C237.807 119.23 235.9 126.737 236.104 127.962L236.565 128.291C237.942 127.672 238.457 122.646 239.639 120.245L239.791 119.942C239.926 122.032 239.868 124.134 239.739 126.222C239.219 134.64 238.328 139.748 232.577 146.097C230.115 144.165 227.384 142.593 225.206 140.41C224.292 139.495 224.427 139.049 224.488 137.688C223.958 133.253 222.018 129.262 220.285 125.179C223.549 126.656 227.888 131.323 230.633 133.839C231.993 135.085 231.783 137.539 232.426 138.332L232.903 138.333C233.266 137.805 233.328 137.376 233.349 136.749C233.505 132.033 228.151 130.611 225.78 127.622C225.566 125.519 225.804 116.707 227.845 115.826C229.724 117.285 228.11 123.351 228.575 125.277L229.035 125.536C230.63 124.373 230.48 117.817 232.25 114.338Z" fill="white"/>
<path d="M248.938 114.156C251.225 116.239 251.425 124.684 252.975 125.855C253.768 124.5 252.875 119.567 253.023 117.779C253.128 116.528 253.29 115.834 253.573 114.611C255.925 118.946 255.773 121.892 256.228 126.843C254.773 129.908 252.978 130.064 250.615 132.273C249.471 133.343 247.686 137.574 248.98 138.74C249.14 138.697 249.343 138.729 249.46 138.612C249.833 138.237 250.585 135.03 251 134.18C251.503 133.15 259.798 125.943 261.123 125.1C260.24 128.979 258.263 131.929 257.3 137.004C257.15 137.886 257.283 138.732 257.185 139.6C257.02 141.069 250.705 145.078 249.21 146.305C242.484 138.778 243.069 134.866 241.814 124.829C241.677 123.735 241.625 122.483 242.329 121.668C243.455 122.439 243.574 127.751 245.318 128.639L245.614 128.291C245.928 125.479 243.666 118.558 245.223 116.73C247.102 117.343 247.308 124.512 248.838 126.743C250.9 126.124 246.932 117.67 248.938 114.156Z" fill="white"/>
<path d="M406.952 272.695C407.034 272.728 407.119 272.758 407.202 272.79C411.492 276.853 413.322 281.46 414.272 286.755C412.732 284.958 411.554 280.558 409.954 279.978C408.629 281.473 414.419 288.763 411.854 290.278C409.667 289.643 409.567 282.21 407.079 281.913C405.914 283.975 411.227 290.605 408.844 293.298L408.412 293.285C407.237 292.328 406.722 289.898 406.312 288.425C405.889 287.138 405.014 284.01 403.732 283.438C403.139 284.86 405.654 290.365 405.247 294.653L404.642 294.593L405.087 294.905C403.207 294.023 400.822 285.645 399.009 282.83L398.807 282.52C398.087 283.945 396.359 289.368 394.782 289.35C394.094 288.003 394.689 280.205 394.754 278.138C399.814 276.205 402.137 275.368 406.952 272.695Z" fill="white"/>
<path d="M75.3261 272.237C79.2348 274.637 83.0788 276.3 87.3566 277.91C87.4521 280 88.0023 287.817 87.4148 289.262L87.0333 289.327C85.1938 287.635 84.5518 283.517 83.1271 283.112C81.0501 285.322 79.1203 292.082 77.3028 295.267C76.9483 293.575 76.9503 293.635 76.9188 291.95C76.8848 290.117 79.0896 284.522 78.2911 283.825C75.1931 286.827 75.9493 291.655 73.7046 293.142L73.2123 293.102C71.6023 290.75 75.8471 283.342 75.5468 281.97C72.9866 281.35 72.4393 289.297 70.5581 290.225C68.3756 289.14 72.8393 281.842 72.5756 280.04L72.0223 279.785L71.2418 279.715C70.5433 279.167 70.8148 279.522 70.5856 278.49C72.0901 275.767 73.1466 274.505 75.3261 272.237Z" fill="white"/>
<path d="M357.772 291.315L358.227 291.513C358.909 292.305 358.754 295.008 358.752 296.075C358.714 304.665 359.482 312.873 360.844 321.355C362.864 333.928 368.622 345.02 373.924 356.43C375.534 359.893 379.669 366.7 380.324 370.208C379.047 369.725 375.564 362.263 374.849 360.828C372.692 356.97 371.067 352.665 369.072 348.745C361.197 333.293 358.062 318.343 357.737 300.945C354.882 299.975 350.472 296.15 350.109 293.06C350.382 292.23 350.119 292.48 350.739 292.118C352.314 293.2 353.802 300.125 357.627 299.058C357.787 298.15 357.672 292.915 357.772 291.315Z" fill="white"/>
<path d="M123.977 291.1L124.475 291.39C125.308 292.512 124.842 297.637 124.776 299.392C128.749 298.107 129.946 295.635 131.896 292.152C132.094 292.14 132.383 292.077 132.498 292.157C133.083 295.572 127.632 299.772 124.737 300.867C124.236 309.822 123.519 321.455 120.837 330.07C117.97 339.28 112.258 351.377 107.996 360.127C107.1 361.817 103.698 369.882 102.2 370.05C102.081 368.797 105.403 362.74 106.183 361.185C109.027 355.49 111.708 349.712 114.221 343.862C115.998 339.825 118.187 335.095 119.449 330.822C122.132 321.735 123.055 312.267 123.606 302.845C123.824 299.12 123.493 294.715 123.977 291.1Z" fill="white"/>
<path d="M389.65 379.385L389.96 379.59C391.438 382.507 382.535 390.777 380.31 393.077C377.51 395.967 369.328 401.767 365.893 397.042C369.11 385.202 374.95 395.055 377.08 393.677C380.373 391.55 387.485 383.045 389.65 379.385Z" fill="white"/>
<path d="M240.71 129.896C241.413 131.116 241.25 133.137 241.523 134.6C242.617 140.471 244.688 143.229 248.149 147.732L241.257 147.934C239.43 147.988 235.856 148.259 234.321 147.625C233.841 146.668 235.017 145.524 235.768 144.601C239.341 140.208 240.333 135.47 240.71 129.896Z" fill="white"/>
<path d="M92.3394 379.317C93.5244 379.652 96.4764 384.065 97.5294 385.297C100.233 388.462 103.067 391.217 106.031 394.137L106.188 394.015C107.966 392.667 110.901 390.607 113.228 391.56C114.975 392.275 115.626 394.58 116.272 396.197C116.163 398.335 114.34 398.702 112.555 398.53C108.64 398.155 104.685 395.2 101.971 392.542C99.4319 390.057 91.8689 383.007 92.3394 379.317Z" fill="white"/>
<path d="M153.262 304.825C154.733 305.288 155.325 309.488 155.631 311.013C158.487 325.245 160.179 339.825 161.295 354.293C161.934 362.578 162.79 371.558 162.678 379.865L162.257 379.718C161.763 379.163 161.765 378.92 161.703 378.033C161.276 371.885 160.916 365.7 160.508 359.555C159.872 350.128 158.984 340.723 157.844 331.343C156.658 321.83 154.927 314.085 153.262 304.825Z" fill="white"/>
<path d="M329.218 304.625L329.578 305.095C329.446 306.925 328.798 309.28 328.373 311.09C324.556 327.36 323.243 343.975 321.946 360.582C321.711 363.582 321.148 378.702 320.378 380.142L319.958 379.698C319.513 378.078 320.163 371.048 320.291 369.068C321.496 350.373 322.868 331.245 326.823 312.91C327.313 310.633 328.178 306.555 329.218 304.625Z" fill="white"/>
<path d="M155.666 188.247C156.17 188.223 156.48 188.241 156.988 188.259C157.296 188.676 157.446 188.816 157.423 189.389C157.176 195.347 151.283 199.451 145.771 199.478C140.968 199.502 137.76 198.05 134.475 194.94C134.248 194.681 134.023 194.419 133.802 194.154C133.087 193.283 132.529 192.318 133.625 191.476C135.746 191.531 136.428 193.202 137.959 194.341C142.787 197.932 151.317 197.655 154.008 191.572C154.584 190.27 154.693 189.327 155.666 188.247Z" fill="white"/>
<path d="M325.006 188.089C327.401 188.524 327.661 189.68 328.631 191.738C331.663 198.174 338.663 198.433 344.111 195.114C346.246 193.814 346.743 191.122 349.818 192.43C349.988 193.11 349.828 193.064 349.438 193.881C342.143 203.107 326.203 201.86 325.006 188.089Z" fill="white"/>
<path d="M158.842 393.793C165.44 395.1 171.983 395.783 178.7 396.028C180.487 396.095 187.689 394.908 188.419 395.998L188.127 396.748C186.656 397.213 185.284 397.488 183.746 397.618C179.964 397.938 160.98 397.383 159.187 395.303C158.686 394.723 158.778 394.51 158.842 393.793Z" fill="white"/>
<path d="M323.285 393.835L323.625 393.932L323.755 394.492C323.563 394.932 323.323 395.615 322.788 395.75C316.793 397.265 300.595 398.867 295.063 397.067C294.29 396.43 294.488 396.81 294.23 396.015C295.328 395.192 300.873 396.187 302.895 396.135C309.72 395.96 316.628 395.26 323.285 393.835Z" fill="white"/>
<path d="M217.863 143.279C221.049 142.932 223.48 145.89 226.253 147.979L219.641 148.189L211.336 148.322C213.921 145.844 214.771 144.942 217.863 143.279Z" fill="white"/>
<path d="M311.478 381.237C313.986 381.327 318.946 381.06 321.231 381.94C321.546 382.06 321.543 382.385 321.663 382.782C321.438 383.737 321.466 383.69 320.786 384.397C318.226 385.352 314.141 386.505 311.988 384.32C311.236 383.555 311.448 382.242 311.478 381.237Z" fill="white"/>
<path d="M170.778 381.395L171.093 381.502C171.391 382.265 171.251 383.687 171.224 384.567C168.007 385.7 165.993 385.645 162.753 384.787C161.542 384.257 160.162 383.38 161.279 381.94C163.075 381.142 168.262 381.477 170.778 381.395Z" fill="white"/>
<path d="M406.203 268.96L406.763 269.26C407.133 269.985 407.061 269.61 406.968 270.435C405.196 272.892 396.433 276.182 393.421 276.757C392.878 276.18 392.736 276.132 392.551 275.362C393.038 274.775 395.348 273.98 396.208 273.652C399.771 272.295 402.876 270.812 406.203 268.96Z" fill="white"/>
<path d="M75.369 268.58C76.4915 268.85 80.7623 271.188 82.1538 271.82C84.5448 272.908 86.776 273.785 89.233 274.753C89.615 275.483 89.4178 275.553 89.2658 276.58C86.1828 276.41 78.0148 272.838 75.596 270.43C75.0918 269.93 75.3003 269.29 75.369 268.58Z" fill="white"/>
<path d="M262.28 143.271C265.74 143.8 266.992 145.147 269.52 147.42C267.82 147.304 265.44 147.427 263.687 147.466C261.17 147.476 258.88 147.504 256.357 147.636C258.39 146.06 260.045 144.575 262.28 143.271Z" fill="white"/>
<path d="M381.458 371.433C381.656 371.57 381.811 371.798 381.976 372C382.578 375.578 377.711 379.928 375.091 379.103C374.551 378.375 373.963 377.463 373.443 376.7C375.883 375.59 379.213 373.055 381.458 371.433Z" fill="white"/>
<path d="M100.432 371.317C101.241 371.415 107.695 375.762 108.802 376.527C108.836 377.25 108.381 377.725 107.958 378.36C105.439 380.815 99.9145 375.37 100.432 371.317Z" fill="white"/>
<path d="M222.124 140.329C223.623 141.023 230.959 146.488 232.146 147.651L231.941 148.015C230.877 148.033 229.766 148.004 228.698 147.994C226.682 146.519 222.746 143.926 221.492 141.93C221.429 140.986 221.433 141.301 222.124 140.329Z" fill="white"/>
<path d="M259.355 140.722C260.112 140.981 260.222 141.223 260.45 141.875C259.855 143.648 255.135 146.859 253.435 147.674C253.22 147.777 251.54 147.716 251.187 147.701C250.652 147.751 250.905 147.8 250.43 147.556C251.292 146.016 257.61 141.758 259.355 140.722Z" fill="white"/>
<path d="M334.39 135.269L334.93 135.386L334.967 135.673C333.745 136.647 327.702 138.088 324.347 140.266L323.855 140.51L323.527 140.338C324.192 137.832 332.057 135.939 334.39 135.269Z" fill="white"/>
<path d="M333.628 144.439C334.35 146.983 325.178 150.104 323.115 150.648L323.08 150.216C323.458 149.653 324.268 149.469 324.965 149.205C328.323 147.936 330.725 146.448 333.628 144.439Z" fill="white"/>
<path d="M339.466 145.159L339.841 145.33L339.933 145.828C338.476 148.297 334.521 150.524 331.808 151.447L331.328 151.103C331.596 150.616 335.613 148.58 336.626 147.755C337.796 146.804 338.358 146.29 339.466 145.159Z" fill="white"/>
<path d="M70.587 278.49C70.8162 279.523 70.5447 279.168 71.2432 279.715L72.0237 279.785C70.6797 281.29 70.2255 283.42 68.5665 285.405L68.289 284.953L68.2617 285.063C68.9917 281.973 69.1487 281.313 70.587 278.49Z" fill="white"/>
<path d="M361.078 152.581C364.181 153.289 363.108 159.449 362.516 161.688C362.141 161.715 362.366 161.723 361.848 161.586C361.911 160.642 362.328 157.914 362.291 157.333C362.233 156.444 361.348 153.755 361.078 152.581Z" fill="white"/>
<path d="M107.446 383.525C108.436 383.45 108.737 383.335 109.574 383.77L109.501 384.128C108.431 384.873 107.637 384.925 106.357 385.185C105.713 385.528 105.621 385.66 104.898 385.608L104.752 385.278C105.568 383.963 105.926 383.945 107.446 383.525Z" fill="white"/>
<path d="M174.392 386.895C175.27 387.03 174.957 386.815 175.491 387.342C175.219 388.242 173.671 389.667 172.927 390.47L172.427 390.757L172.148 390.497C172.312 389.05 173.404 387.88 174.392 386.895Z" fill="white"/>
<path d="M109.436 386.8C110.374 386.732 110.343 386.707 111.228 386.977L111.302 387.345C110.321 388.142 109.658 388.162 108.415 388.425C107.415 388.6 107.573 388.74 106.848 388.372L106.982 387.97C107.942 387.12 108.148 387.142 109.436 386.8Z" fill="white"/>
<path d="M307.078 387.003C309.216 386.908 310.881 388.588 311.003 390.673C309.966 390.45 307.686 387.925 307.078 387.003Z" fill="white"/>
<path d="M178.406 388.412L178.86 388.857C178.737 389.797 176.89 391.75 176.163 392.625C175.717 392.242 175.854 392.41 175.609 391.872C175.859 390.345 177.232 389.425 178.406 388.412Z" fill="white"/>
<path d="M372.977 383.79C374.709 383.613 377.199 383.79 377.704 385.758C376.217 385.45 373.384 385.258 372.977 383.79Z" fill="white"/>
<path d="M303.773 388.447C305.671 388.602 307.161 390.485 307.591 392.227L306.771 392.132C305.823 391.247 304.166 389.647 303.773 388.447Z" fill="white"/>
<path d="M371.275 387.072C372.933 386.845 375.43 386.827 375.933 388.742C374.58 388.65 371.843 388.37 371.275 387.072Z" fill="white"/>
<path d="M358.173 154.148C359.033 154.974 359.721 157.944 359.728 159.179C358.416 158.235 357.866 155.676 358.173 154.148Z" fill="white" fill-opacity="0.988235"/>
<path d="M371.686 89.8135C374.976 89.6495 378.921 89.7637 382.223 89.8017C389.508 94.2047 398.166 105.298 401.088 113.265C395.638 118.462 390.018 123.481 384.243 128.315L382.023 129.97C380.453 126.985 378.693 123.498 376.783 120.756C371.878 113.721 364.298 107.431 356.811 103.395C359.118 100.793 368.936 90.9042 371.686 89.8135Z" fill="black"/>
<path d="M382.308 91.2949C390.283 97.9142 394.898 103.502 399.648 112.721C395.638 116.473 391.56 120.155 387.418 123.765L382.368 128.153C377.3 116.372 369.49 109.536 358.963 102.848C362.895 99.2997 367.325 94.6149 371.303 91.4227C372.708 92.8519 375.225 94.8724 376.815 96.2282C378.815 94.5677 380.425 93.0722 382.308 91.2949Z" fill="white"/>
<path d="M387.984 101.435C388.407 101.705 388.214 101.541 388.452 102.096C387.847 103.81 378.614 111.656 376.637 113.004C376.102 112.517 376.244 112.811 376.182 112.103C377.114 110.684 386.334 102.6 387.984 101.435Z" fill="black"/>
<path d="M383.769 97.1855C384.199 97.4125 384.002 97.2575 384.244 97.824C383.599 99.3923 374.367 107.413 372.634 108.676C372.072 108.394 372.287 108.59 372.029 108.024C372.524 106.565 382.134 98.312 383.769 97.1855Z" fill="black"/>
<path d="M391.637 106.439L392.165 106.547L392.355 106.954C391.827 108.537 382.502 116.394 380.695 117.51L380.205 117.225L380.162 116.738C381.112 115.293 389.827 107.944 391.637 106.439Z" fill="black"/>
<path d="M388.02 115.937L388.61 116.014L388.745 116.482C388.21 117.848 385.178 120.063 383.903 121.091C383.388 121.063 383.628 121.156 383.213 120.74C383.3 119.36 386.933 116.774 388.02 115.937Z" fill="black"/>
<path d="M373.053 91.2565C375.053 91.1557 378.275 91.2717 380.36 91.289L378.83 92.6992L376.753 94.5317C375.718 93.4747 374.22 92.3462 373.053 91.2565Z" fill="white"/>
<path d="M92.1683 99.7412C96.4251 101.442 109.429 108.008 112.985 110.716C110.338 112.317 107.669 113.878 105.341 115.849C98.8568 121.339 96.0016 130.594 95.1106 138.777C95.0158 139.646 94.9201 139.839 94.3811 140.275L93.6901 140.115C87.5811 137.781 78.2456 133.492 72.4238 130.602C73.1911 118.458 80.4771 104.56 92.1683 99.7412Z" fill="black"/>
<path d="M91.9645 101.214C93.7917 101.365 107.578 109.017 110.701 110.522C101.83 115.069 96.6715 122.776 94.816 132.535C94.4642 134.385 94.0797 136.521 93.5945 138.332L93.1757 138.41C87.0532 135.758 79.7392 132.703 73.8457 129.763C75.8247 118.201 80.741 106.478 91.9645 101.214Z" fill="white"/>
<path d="M82.0137 113.91C83.9247 114.142 92.4262 118.607 94.6477 119.736C95.4929 120.166 95.5914 120.526 95.7942 121.295C93.7957 121.311 84.7774 116.501 82.5947 115.274C82.0174 114.949 82.1119 114.551 82.0137 113.91Z" fill="black"/>
<path d="M79.758 119.396C82.056 119.94 90.2572 123.959 92.6737 125.251C93.2837 125.578 93.195 125.942 93.3122 126.585C91.5727 126.431 82.0987 121.95 80.1695 120.729C79.6245 120.384 79.7857 120.074 79.758 119.396Z" fill="black"/>
<path d="M78.0176 124.985C80.2538 125.439 88.9201 129.263 91.1028 130.781C91.3906 130.982 91.2386 131.283 91.1843 131.749C88.9723 131.312 80.5161 127.513 78.3093 126.072C77.9173 125.816 78.0541 125.624 78.0176 124.985Z" fill="black"/>
<path d="M85.1797 109.472C87.8454 109.366 94.5217 113.452 97.2674 114.736C98.1977 115.171 98.3254 115.472 98.5564 116.287L97.7542 116.415C94.5362 115.285 89.1562 112.174 86.0042 110.554C85.6189 110.356 85.3664 109.85 85.1797 109.472Z" fill="black"/>
<path d="M89.293 105.236C91.637 105.2 98.5565 109.363 101.011 110.543C102.069 111.052 102.352 111.38 102.608 112.362C100.838 112.555 92.0497 107.466 89.9855 106.297C89.6947 106.132 89.425 105.538 89.293 105.236Z" fill="black"/>
<path d="M307.186 81.6953C309.286 82.7793 324.316 94.7876 326.188 96.7948C319.323 102.406 314.278 105.997 309.773 114.281C308.888 115.906 306.481 121.78 305.738 122.558L305.326 122.508C299.383 118.851 290.691 112.97 285.391 108.445C289.408 98.5223 297.446 86.6326 307.186 81.6953Z" fill="black"/>
<path d="M306.816 83.4395C307.936 83.5507 322.093 95.0022 324.093 96.6607C312.843 105.196 311.151 108.596 305.066 120.851C300.146 116.87 292.616 112.125 287.148 108.081C290.803 98.6595 298.156 88.7595 306.816 83.4395Z" fill="white"/>
<path d="M303.758 88.9307C305.558 89.0242 316.49 97.5039 316.295 99.4492C314.388 99.2397 305.833 91.5127 303.935 89.8022C303.875 89.5117 303.818 89.2212 303.758 88.9307Z" fill="black"/>
<path d="M299.779 93.1602C302.009 93.2052 309.744 100.436 311.964 102.025C312.267 102.242 312.469 102.792 312.584 103.145C311.894 103.29 311.534 103.32 310.914 102.822C308.754 101.08 300.324 95.5904 299.779 93.1602Z" fill="black"/>
<path d="M293.008 102.425C293.463 102.435 294.03 102.386 294.525 102.742C298.015 105.236 302.053 107.861 305.133 110.822C305.238 111.212 305.323 111.527 305.385 111.768C304.985 111.743 304.38 111.722 304.065 111.463C302.025 109.787 293.578 104.686 293.008 102.425Z" fill="black"/>
<path d="M296.453 97.6504C298.753 97.8899 304.478 103.217 306.576 104.685C307.656 105.443 308.211 106.124 308.351 107.447C307.806 107.264 307.158 106.985 306.523 106.489C303.301 103.978 299.448 101.393 296.606 98.4861C296.556 98.2076 296.503 97.9291 296.453 97.6504Z" fill="black"/>
<path d="M391.027 170.142C392.75 170.993 393.942 175.04 394.652 176.94C396.77 176.993 399.347 176.874 401.247 177.66C402.512 179.252 398.155 182.235 396.945 183.263C397.397 184.791 399.057 189.35 398.287 190.574C396.245 191.22 393.472 187.508 391.097 187.911C389.76 188.952 386.525 192.051 384.97 191.03C384.337 189.305 385.43 185.817 385.877 183.897C384.512 182.687 380.337 180.566 380.745 178.669C382.142 177.51 386.025 177.401 387.955 177.21C388.757 174.791 389.47 172.153 391.027 170.142Z" fill="black"/>
<path d="M391.063 172.602C392.01 173.051 393.07 176.855 393.573 178.147C396.055 178.429 397.705 178.508 400.173 178.561C398.698 179.966 396.785 181.488 395.2 182.815C395.93 184.756 396.438 186.93 396.963 188.949C395.075 188.139 392.755 186.037 391.123 186.101C389.58 187.384 387.655 188.726 386.015 189.928L387.368 183.133C385.505 181.871 383.67 180.567 381.865 179.224C384.305 178.976 386.285 178.779 388.753 178.735L391.063 172.602Z" fill="#8CBE70"/>
<path d="M204.254 294.832C205.941 295.615 206.951 300.022 207.56 301.827C209.348 302.187 214.131 302.122 214.359 304.127C213.584 305.685 210.842 307.237 209.288 308.257C209.718 309.872 211.682 315.225 209.723 315.727C207.994 315.295 205.227 313.222 203.622 312.125C202.239 313.147 198.302 316.357 196.89 314.827C196.525 312.987 197.811 309.815 198.424 307.917C197.022 306.765 193.182 304.317 193.909 302.452C195.459 301.402 198.879 301.685 200.859 301.69C201.622 299.742 202.872 296.242 204.254 294.832Z" fill="black"/>
<path d="M204.144 297.335C205.278 298.037 205.995 301.46 206.563 303.077C208.565 303.45 211.138 303.725 213.143 303.822C211.392 305.135 209.608 306.402 207.794 307.627C208.328 309.447 208.806 312.305 209.222 314.267C207.408 313.027 205.621 311.747 203.862 310.43C201.954 311.652 200.014 312.825 198.045 313.947C198.711 311.857 199.284 309.567 199.859 307.44C198.377 305.99 196.659 304.567 195.08 303.207C197.26 303.205 199.441 303.175 201.62 303.117C202.499 301.24 203.323 299.245 204.144 297.335Z" fill="#8CBE70"/>
<path d="M398.174 324.067C398.357 324.11 398.807 324.31 398.999 324.39C400.194 325.85 401.239 328.842 401.979 330.705C403.769 330.75 407.837 330.457 408.724 332.067C408.467 333.645 405.409 335.825 404.064 337.02C404.562 338.587 406.327 342.982 405.252 344.197C403.864 344.345 400.317 342.037 398.644 341.24C397.264 342.155 393.247 345.555 391.889 344.32C391.522 342.635 392.674 339.022 393.154 337.197C391.679 336.182 387.347 333.835 388.297 331.867C389.967 330.802 393.022 330.977 395.089 330.915C395.957 328.75 396.919 325.947 398.174 324.067Z" fill="black"/>
<path d="M398.468 326.36C399.175 327.06 400.355 330.565 400.99 331.94C403.01 332.275 405.228 332.29 407.285 332.363C405.685 333.74 404.068 335.1 402.435 336.44C403.163 338.493 403.615 340.588 404.118 342.705C402.373 341.943 399.85 339.698 398.36 339.65C396.49 341.025 395.005 342.015 393.03 343.243C393.585 341.09 394.165 338.943 394.77 336.805C392.953 335.428 391.15 334.028 389.365 332.608C391.468 332.44 393.9 332.385 396.033 332.283C396.868 330.315 397.515 328.283 398.468 326.36Z" fill="#8CBE70"/>
<path d="M239.193 72.0869C240.823 72.9064 242.952 76.5702 243.886 78.1159C245.351 77.7242 249.924 76.4964 250.947 77.7487C250.897 79.2779 248.343 82.1054 247.3 83.4237C248.113 84.9299 250.517 88.6352 249.875 90.0764C248.458 90.5802 244.669 89.1019 243.073 88.5919C242.015 89.7397 238.958 93.7184 237.494 93.3144C236.68 91.9289 237.036 88.0137 237.092 86.2472C234.312 85.0452 232.317 84.5569 230.1 82.4427C232.785 81.3624 234.878 80.7004 237.638 79.8534C237.92 77.5754 238.263 74.0804 239.193 72.0869Z" fill="black"/>
<path d="M258.154 355.048C260.339 355.478 262.097 358.598 263.412 360.485C264.914 359.913 269.099 358.258 270.284 359.578C270.339 361.213 268.069 364.003 267.054 365.45C267.952 366.803 271.202 370.788 269.997 372.103C268.317 372.483 265.062 371.21 263.299 370.645C261.422 372.82 259.947 374.968 257.784 376.863C257.342 374.233 257.287 371.455 257.227 368.79C254.124 367.775 252.444 367.285 249.736 365.533C252.232 364.275 254.862 363.295 257.464 362.268C257.472 359.745 257.587 357.51 258.154 355.048Z" fill="black"/>
<path d="M219.825 336.213C221.75 336.248 223.649 337.083 223.789 339.21C223.157 341.148 220.727 344.41 219.457 346.085C216.725 349.69 214.363 353.858 211.079 356.95C209.027 358.883 206.625 354.09 205.961 353.013C204.984 351.445 199.515 344.955 206.092 344.453C207.422 344.353 209.398 348.138 210.217 349.448C211.975 346.82 217.969 338.02 219.825 336.213Z" fill="black"/>
<path d="M220.376 337.64C221.426 337.72 221.831 337.992 222.266 338.917C222.062 340.627 211.598 354.522 209.895 356.437C208.585 354.615 207.163 352.202 205.953 350.27C205.233 349.172 203.01 346.302 205.703 345.975C207.258 346.73 208.995 350.162 210.191 351.897C213.573 347.397 216.863 341.912 220.376 337.64Z" fill="#8CBE70"/>
<path d="M81.983 168.764C82.4212 168.927 82.2172 168.831 82.5655 169.262L82.2415 169.74C79.5787 171.015 77.3867 172.37 75.8872 175.056C75.0312 176.589 74.4185 179.547 74.9612 181.252C75.476 181.51 77.929 181.389 78.5595 181.28C84.1997 180.3 85.5424 190.483 79.3444 189.078C76.4607 188.424 75.173 186.355 73.7727 184.11C72.2915 186.398 70.2925 191.114 71.9292 193.666C73.4767 194.668 76.9475 192.295 78.822 194.576C80.5925 196.731 80.3705 198.112 78.4152 199.966C75.0617 200.953 73.4587 199.2 71.3195 196.94C69.5242 200.885 69.2585 202.542 70.4755 206.957C70.6927 207.745 71.1227 208.366 71.035 209.125C69.1605 209.44 68.819 207.522 68.595 206.102C67.969 202.131 68.329 198.961 70.734 195.643C69.7297 190.387 69.6247 186.846 73.4337 182.625C73.2234 175.563 74.587 171.177 81.983 168.764Z" fill="black"/>
<path d="M76.2375 182.541C79.6648 182.321 84.2503 183.993 80.9938 187.751C77.968 188.126 73.9243 184.489 76.2375 182.541Z" fill="white"/>
<path d="M75.0836 194.793C75.3196 194.825 75.5551 194.862 75.7901 194.902C77.4274 195.19 78.8684 196.084 78.3964 197.948C77.7374 198.717 77.6501 198.709 76.6626 199.064C75.1726 198.621 72.6584 197.532 73.1001 195.653C73.7416 195.017 74.2011 195.004 75.0836 194.793Z" fill="white"/>
<path d="M159.213 78.6564C160.852 78.6442 162.862 79.2469 163.378 80.9787C163.027 83.1517 156.433 96.5129 154.876 98.4729C152.417 99.7689 150.643 96.5649 149.434 94.9017C147.969 92.8617 146.704 91.0567 145.346 88.9309C149.532 84.6662 150.106 87.3814 153.081 91.1007C154.764 87.4324 157.149 81.9369 159.213 78.6564Z" fill="black"/>
<path d="M160.132 79.8584C160.975 80.2141 160.96 80.2364 161.626 80.7961C161.669 80.9901 161.712 81.1841 161.754 81.3781C160.064 85.2899 155.728 94.6354 153.784 97.9314C152.267 96.2526 150.875 94.3944 149.485 92.6039C148.718 91.5794 147.533 90.2259 147.408 89.0191C147.963 88.3916 147.626 88.5879 148.463 88.4264C150.127 89.0224 152.029 92.1449 153.328 93.7689C155.15 90.0304 158.042 83.1509 160.132 79.8584Z" fill="#8CBE70"/>
<path d="M83.0468 320.713C89.4258 321.77 86.4706 324.203 85.2366 328.928C84.5893 330.588 84.1008 332.385 83.4436 334.038C80.6308 341.108 80.7078 344.263 74.6921 337.388C73.2463 335.833 71.6198 334.025 70.5176 332.223C71.6816 330.773 72.3383 330.31 73.8366 329.353C75.3963 330.548 76.7681 332.108 77.9771 333.65C79.1216 330.775 81.6131 322.613 83.0468 320.713Z" fill="black"/>
<path d="M83.6931 322.117C84.6611 322.417 84.9213 322.42 85.6238 323.095C85.6328 324.492 80.3776 338.432 79.3808 340.26C77.6593 338.625 76.0243 336.762 74.4193 335.002C73.6556 334.202 72.7931 333.477 72.4551 332.465C72.7378 331.54 72.4876 331.942 73.3581 331.297C74.8603 331.537 77.4556 334.737 78.7706 336.055C79.7766 332.817 82.3591 324.807 83.6931 322.117Z" fill="white"/>
<path d="M270.961 304.713C272.386 305.168 275.066 310.965 276.036 312.61C277.291 314.743 278.631 317.003 279.941 319.125C277.888 320.773 276.731 321.57 274.303 322.603L273.646 322.508C272.186 321.278 266.648 310.72 265.211 308.255C267.131 306.565 268.651 305.788 270.961 304.713Z" fill="black"/>
<path d="M270.266 306.423C270.473 306.483 270.681 306.54 270.888 306.6C273.361 310.298 275.678 315.335 278.301 318.918L274.598 320.985L274.181 320.925C273.078 319.725 268.108 310.515 266.898 308.465L270.266 306.423Z" fill="#8CBE70"/>
<path d="M419.948 204.264C420.68 204.344 420.66 204.37 421.338 204.692L421.475 205.153C420.665 205.444 418.413 206.205 417.933 206.817C415.36 210.101 415.598 212.918 411.81 215.505C411.035 219.452 409.793 222.736 406.015 224.83C405.313 225.219 404.738 225.422 403.98 225.182C404.19 223.832 406.958 222.491 407.918 221.389C408.633 220.567 409.058 219.659 409.538 218.701C409.77 217.89 410.093 217.11 409.923 216.306C407.378 216.178 402.93 215.454 402.168 212.835C401.33 209.953 405.158 205.309 408.36 207.976C410.935 210.122 411.228 211.278 411.76 214.259C413.548 211.877 414.49 210.005 415.818 207.38C416.773 205.492 417.933 204.768 419.948 204.264Z" fill="black"/>
<path d="M405.468 208.723C408.331 208.745 410.516 211.387 409.991 214.125C409.426 214.844 409.656 214.616 408.511 214.833C404.601 214.464 401.186 211.746 405.468 208.723Z" fill="white"/>
<path d="M180.027 109.139C180.228 109.184 180.533 109.332 180.737 109.418C180.855 110.26 179.163 114.115 179.134 115.407C179.108 116.521 179.219 117.171 179.377 118.264C180.975 117.416 184.164 116.077 185.154 117.841C188.165 123.214 182.091 121.972 179.918 121.484C179.235 123.233 180.215 125.094 181.129 126.584C182.393 127.865 184.404 128.71 185.123 130.334L184.794 130.474C182.15 129.803 179.425 127.653 178.769 124.862C178.439 123.454 178.714 121.589 178.522 120.195C177.846 115.279 177.078 113.531 180.027 109.139Z" fill="black"/>
<path d="M182.785 118.272C183.909 118.494 184.617 118.705 184.58 119.934C184.063 120.705 183.837 120.717 182.979 121.054C181.99 120.57 181.28 120.367 180.939 119.387C181.591 118.566 181.664 118.738 182.785 118.272Z" fill="white"/>
<path d="M384.553 299.055C386.49 298.777 388.3 300.077 388.658 302.002C389.013 303.925 387.788 305.787 385.88 306.222C384.575 306.52 383.213 306.077 382.33 305.072C381.448 304.065 381.185 302.657 381.65 301.402C382.115 300.145 383.228 299.245 384.553 299.055Z" fill="black"/>
<path d="M384.224 300.615C385.359 300.145 386.659 300.69 387.119 301.83C387.579 302.968 387.019 304.263 385.877 304.71C384.749 305.153 383.474 304.603 383.022 303.48C382.569 302.358 383.107 301.078 384.224 300.615Z" fill="white"/>
<path d="M301.06 140.384C302.965 139.987 304.845 141.167 305.315 143.056C305.787 144.944 304.682 146.868 302.812 147.413C301.537 147.785 300.16 147.429 299.225 146.485C298.29 145.541 297.945 144.161 298.327 142.889C298.71 141.616 299.76 140.655 301.06 140.384Z" fill="black"/>
<path d="M300.988 141.867C301.746 141.577 302.603 141.727 303.218 142.257C303.836 142.787 304.111 143.612 303.936 144.406C303.761 145.199 303.166 145.833 302.386 146.056C301.246 146.382 300.056 145.753 299.681 144.63C299.306 143.508 299.883 142.29 300.988 141.867Z" fill="white"/>
<path d="M338.143 104.138C339.395 103.647 340.818 103.89 341.833 104.77C342.85 105.65 343.295 107.022 342.99 108.331C342.683 109.641 341.675 110.672 340.373 111.009C338.52 111.489 336.615 110.444 336.023 108.623C335.433 106.803 336.363 104.837 338.143 104.138Z" fill="black"/>
<path d="M338.86 105.377C339.617 105.136 340.447 105.322 341.03 105.864C341.612 106.406 341.86 107.22 341.672 107.994C341.487 108.769 340.9 109.383 340.132 109.601C338.975 109.932 337.765 109.271 337.415 108.117C337.067 106.963 337.71 105.743 338.86 105.377Z" fill="white"/>
<path d="M92.3068 153.695C93.9563 153.465 95.4915 154.583 95.7803 156.223C96.069 157.863 95.0078 159.438 93.3793 159.785C92.272 160.022 91.1243 159.635 90.3863 158.776C89.6485 157.918 89.4383 156.725 89.8385 155.666C90.2388 154.607 91.1855 153.851 92.3068 153.695Z" fill="black"/>
<path d="M191.638 236.125C193.287 235.746 194.933 236.768 195.325 238.413C195.718 240.059 194.711 241.714 193.069 242.121C191.406 242.533 189.727 241.511 189.329 239.845C188.931 238.178 189.968 236.508 191.638 236.125Z" fill="black"/>
<path d="M64.6431 229.551C65.0011 229.7 65.1643 229.824 65.4948 230.027C65.7951 230.962 65.5633 231.369 66.2556 231.909C66.8651 231.628 67.2681 231.335 67.8933 231.486L68.1381 232.111C67.7671 232.84 67.5986 232.713 66.6593 233.168C66.1851 234.215 67.0848 233.994 67.2833 235.769L66.8796 236.107C65.9058 235.761 66.2818 234.834 65.2486 234.365L64.8138 234.611C64.1516 235.541 63.8798 236.091 62.8823 236.66C62.6336 236.167 62.8878 236.028 63.0771 235.303C63.6866 232.963 62.2348 233.684 61.5273 232.44L61.9143 231.783L62.3501 231.757C64.5651 233.489 64.4988 231.4 64.6431 229.551Z" fill="black"/>
<path d="M261.36 105.57C261.865 105.799 261.685 105.685 262.065 106.118C262.005 107.812 259.843 111.281 258.928 112.917C258.365 112.767 258.55 112.864 258.125 112.476C258.01 110.814 260.363 106.905 261.36 105.57Z" fill="black"/>
<path d="M214.114 107.962C215.885 108.409 219.359 112.637 219.324 114.411C217.489 113.825 214.042 109.98 214.114 107.962Z" fill="black"/>
<path d="M268.963 113.741L269.596 113.858L269.678 114.315C268.798 115.578 265.468 117.441 263.991 118.339L263.561 118.096C262.776 116.424 267.703 114.354 268.963 113.741Z" fill="black"/>
<path d="M223.822 103.908C225.7 104.499 226.571 109.711 225.957 111.211C224.43 110.258 223.285 105.525 223.822 103.908Z" fill="black"/>
<path d="M271.713 90.6064C272.291 90.3377 272.966 90.4004 273.483 90.7709C274.001 91.1414 274.278 91.7619 274.208 92.3942C274.138 93.0264 273.733 93.5722 273.148 93.8217C272.266 94.1989 271.241 93.7977 270.851 92.9202C270.458 92.0427 270.843 91.0129 271.713 90.6064Z" fill="black"/>
<path d="M129.363 108.894C130.238 108.556 131.224 108.964 131.605 109.82C131.986 110.677 131.628 111.682 130.792 112.106C130.212 112.4 129.518 112.35 128.985 111.977C128.453 111.604 128.17 110.967 128.249 110.322C128.328 109.677 128.756 109.128 129.363 108.894Z" fill="black"/>
<path d="M97.5555 303.385C98.1367 303.115 98.8182 303.188 99.3317 303.57C99.8452 303.953 100.109 304.585 100.018 305.218C99.928 305.853 99.4982 306.385 98.8982 306.61C98.0175 306.938 97.035 306.51 96.6737 305.643C96.3125 304.775 96.702 303.778 97.5555 303.385Z" fill="black"/>
<path d="M208.883 117.991C210.868 117.913 215.332 119.082 216.35 120.95C214.427 121.191 209.866 119.866 208.883 117.991Z" fill="black"/>
<path d="M341.801 368.888C342.376 368.633 343.046 368.708 343.548 369.088C344.053 369.468 344.311 370.088 344.223 370.713C344.138 371.338 343.718 371.865 343.131 372.093C342.253 372.433 341.263 372.01 340.903 371.14C340.541 370.27 340.941 369.27 341.801 368.888Z" fill="black"/>
<path d="M246.925 289.942C247.792 289.537 248.821 289.912 249.228 290.777C249.634 291.642 249.263 292.672 248.399 293.082C247.531 293.492 246.495 293.12 246.087 292.252C245.679 291.382 246.054 290.347 246.925 289.942Z" fill="black"/>
<path d="M137.808 373.33C138.404 373.108 139.073 373.23 139.552 373.648C140.03 374.065 140.241 374.713 140.101 375.333C139.962 375.953 139.493 376.448 138.882 376.62C137.987 376.87 137.054 376.373 136.766 375.49C136.477 374.605 136.937 373.653 137.808 373.33Z" fill="black"/>
<path d="M397.551 140.885C398.126 140.606 398.808 140.668 399.326 141.046C399.841 141.424 400.106 142.056 400.013 142.689C399.921 143.322 399.488 143.852 398.886 144.068C398.021 144.376 397.066 143.955 396.711 143.108C396.356 142.261 396.726 141.285 397.551 140.885Z" fill="black"/>
<path d="M244.911 325.878C245.528 325.78 246.148 326.025 246.533 326.518C246.918 327.008 247.006 327.67 246.765 328.245C246.523 328.82 245.989 329.22 245.369 329.29C244.438 329.395 243.593 328.738 243.469 327.808C243.344 326.88 243.985 326.02 244.911 325.878Z" fill="black"/>
<path d="M204.947 372.62C205.556 372.385 206.244 372.515 206.726 372.955C207.208 373.393 207.4 374.068 207.222 374.695C207.044 375.323 206.527 375.795 205.886 375.918C205.011 376.083 204.154 375.553 203.91 374.698C203.666 373.84 204.116 372.94 204.947 372.62Z" fill="black"/>
<path d="M189.834 143.404C190.599 142.861 191.658 143.033 192.211 143.79C192.764 144.548 192.605 145.609 191.855 146.172C191.361 146.542 190.706 146.618 190.14 146.371C189.574 146.123 189.186 145.591 189.122 144.976C189.059 144.362 189.331 143.761 189.834 143.404Z" fill="black"/>
<path d="M197.749 96.5848C198.592 96.1893 199.597 96.5473 200 97.3873C200.403 98.2271 200.054 99.2351 199.218 99.6456C198.371 100.062 197.347 99.7071 196.939 98.8563C196.531 98.0058 196.895 96.9853 197.749 96.5848Z" fill="black"/>
</g>
<defs>
<clipPath id="clip0_48_2731">
<rect width="480" height="480" fill="white"/>
</clipPath>
</defs>
</svg>
